<svg xmlns="http://www.w3.org/2000/svg" xmlns:xlink="http://www.w3.org/1999/xlink" width="150" viewBox="125 140 150 100" height="50" preserveAspectRatio="xMidYMid meet" version="1.0">
    <defs><g/><clipPath id="8d035d233e"><path d="M 52.417969 161 L 113.167969 161 L 113.167969 221.640625 L 52.417969 221.640625 Z M 52.417969 161 " clip-rule="nonzero"/></clipPath>
    </defs>
    <g clip-path="url(#8d035d233e)"><path fill="#fff7e8" d="M 52.71875 188.710938 C 52.71875 194.714844 54.824219 200.257812 58.371094 204.796875 L 52.910156 217.96875 C 52.378906 219.257812 52.988281 220.726562 54.273438 221.261719 C 54.917969 221.527344 55.605469 221.507812 56.203125 221.261719 L 72.273438 214.601562 C 75.59375 215.753906 79.179688 216.414062 82.945312 216.414062 C 99.640625 216.414062 113.167969 204.003906 113.167969 188.710938 C 113.167969 173.410156 99.640625 161.007812 82.945312 161.007812 C 66.25 161.007812 52.71875 173.410156 52.71875 188.710938 Z M 52.71875 188.710938 " fill-opacity="1" fill-rule="nonzero"/></g><path fill="#095855" d="M 57.757812 188.710938 C 57.757812 193.363281 59.339844 197.855469 62.339844 201.695312 L 64.148438 204.011719 L 59.890625 214.28125 L 72.113281 209.21875 L 73.921875 209.847656 C 76.855469 210.863281 79.890625 211.378906 82.945312 211.378906 C 96.832031 211.378906 108.128906 201.207031 108.128906 188.710938 C 108.128906 176.210938 96.832031 166.042969 82.945312 166.042969 C 69.054688 166.042969 57.757812 176.210938 57.757812 188.710938 Z M 57.757812 188.710938 " fill-opacity="1" fill-rule="nonzero"/><path fill="#fff7e8" d="M 95.539062 196.089844 C 88.578125 203.042969 77.304688 203.039062 70.351562 196.089844 L 73.910156 192.527344 C 78.894531 197.503906 86.996094 197.503906 91.976562 192.527344 Z M 95.539062 196.089844 " fill-opacity="1" fill-rule="nonzero"/><path fill="#fff7e8" d="M 77.90625 182.414062 C 77.90625 182.914062 77.808594 183.398438 77.617188 183.859375 C 77.425781 184.324219 77.152344 184.730469 76.800781 185.085938 C 76.445312 185.441406 76.035156 185.714844 75.574219 185.90625 C 75.109375 186.097656 74.628906 186.191406 74.128906 186.191406 C 73.628906 186.191406 73.144531 186.097656 72.683594 185.90625 C 72.21875 185.714844 71.8125 185.441406 71.457031 185.085938 C 71.101562 184.730469 70.828125 184.324219 70.636719 183.859375 C 70.445312 183.398438 70.351562 182.914062 70.351562 182.414062 C 70.351562 181.914062 70.445312 181.429688 70.636719 180.96875 C 70.828125 180.503906 71.101562 180.097656 71.457031 179.742188 C 71.8125 179.386719 72.21875 179.117188 72.683594 178.921875 C 73.144531 178.730469 73.628906 178.636719 74.128906 178.636719 C 74.628906 178.636719 75.109375 178.730469 75.574219 178.921875 C 76.035156 179.117188 76.445312 179.386719 76.800781 179.742188 C 77.152344 180.097656 77.425781 180.503906 77.617188 180.96875 C 77.808594 181.429688 77.90625 181.914062 77.90625 182.414062 Z M 77.90625 182.414062 " fill-opacity="1" fill-rule="nonzero"/><path fill="#fff7e8" d="M 95.539062 182.414062 C 95.539062 182.914062 95.441406 183.398438 95.25 183.859375 C 95.058594 184.324219 94.785156 184.730469 94.429688 185.085938 C 94.078125 185.441406 93.667969 185.714844 93.203125 185.90625 C 92.742188 186.097656 92.261719 186.191406 91.757812 186.191406 C 91.257812 186.191406 90.777344 186.097656 90.3125 185.90625 C 89.851562 185.714844 89.441406 185.441406 89.085938 185.085938 C 88.734375 184.730469 88.460938 184.324219 88.269531 183.859375 C 88.078125 183.398438 87.980469 182.914062 87.980469 182.414062 C 87.980469 181.914062 88.078125 181.429688 88.269531 180.96875 C 88.460938 180.503906 88.734375 180.097656 89.085938 179.742188 C 89.441406 179.386719 89.851562 179.117188 90.3125 178.921875 C 90.777344 178.730469 91.257812 178.636719 91.757812 178.636719 C 92.261719 178.636719 92.742188 178.730469 93.203125 178.921875 C 93.667969 179.117188 94.078125 179.386719 94.429688 179.742188 C 94.785156 180.097656 95.058594 180.503906 95.25 180.96875 C 95.441406 181.429688 95.539062 181.914062 95.539062 182.414062 Z M 95.539062 182.414062 " fill-opacity="1" fill-rule="nonzero"/><g fill="#ffcc00" fill-opacity="1">
        <g transform="translate(121.53981, 202.684499)">
            <g><path d="M 13.984375 0.421875 C 10.523438 0.421875 7.617188 -0.835938 5.265625 -3.359375 C 2.910156 -5.890625 1.734375 -9.125 1.734375 -13.0625 C 1.734375 -17 2.898438 -20.195312 5.234375 -22.65625 C 7.578125 -25.125 10.492188 -26.359375 13.984375 -26.359375 C 16.023438 -26.359375 17.820312 -25.894531 19.375 -24.96875 C 20.925781 -24.050781 22.125 -22.835938 22.96875 -21.328125 L 22.96875 -25.9375 L 28.390625 -25.9375 L 28.390625 0.421875 C 28.390625 4.066406 27.265625 7.039062 25.015625 9.34375 C 22.773438 11.65625 19.785156 12.8125 16.046875 12.8125 C 12.316406 12.8125 9.289062 11.984375 6.96875 10.328125 C 4.644531 8.679688 3.328125 6.445312 3.015625 3.625 L 8.328125 3.625 C 8.734375 4.976562 9.601562 6.066406 10.9375 6.890625 C 12.28125 7.722656 13.953125 8.140625 15.953125 8.140625 C 17.960938 8.140625 19.632812 7.476562 20.96875 6.15625 C 22.300781 4.84375 22.96875 2.929688 22.96875 0.421875 L 22.96875 -4.84375 C 22.09375 -3.25 20.882812 -1.972656 19.34375 -1.015625 C 17.8125 -0.0546875 16.023438 0.421875 13.984375 0.421875 Z M 20.640625 -6.609375 C 22.191406 -8.191406 22.96875 -10.316406 22.96875 -12.984375 C 22.96875 -15.660156 22.191406 -17.78125 20.640625 -19.34375 C 19.085938 -20.914062 17.242188 -21.703125 15.109375 -21.703125 C 12.972656 -21.703125 11.128906 -20.929688 9.578125 -19.390625 C 8.023438 -17.859375 7.25 -15.757812 7.25 -13.09375 C 7.25 -10.425781 8.023438 -8.28125 9.578125 -6.65625 C 11.128906 -5.039062 12.972656 -4.234375 15.109375 -4.234375 C 17.242188 -4.234375 19.085938 -5.023438 20.640625 -6.609375 Z M 20.640625 -6.609375 "/></g>
        </g>
    </g>
    <g fill="#ffcc00" fill-opacity="1">
        <g transform="translate(153.45611, 202.684499)">
            <g><path d="M 14.453125 0.421875 C 10.679688 0.421875 7.617188 -0.800781 5.265625 -3.25 C 2.910156 -5.695312 1.734375 -8.941406 1.734375 -12.984375 C 1.734375 -17.035156 2.925781 -20.273438 5.3125 -22.703125 C 7.695312 -25.140625 10.78125 -26.359375 14.5625 -26.359375 C 18.351562 -26.359375 21.425781 -25.1875 23.78125 -22.84375 C 26.132812 -20.507812 27.3125 -17.460938 27.3125 -13.703125 C 27.3125 -12.785156 27.242188 -11.9375 27.109375 -11.15625 L 7.25 -11.15625 C 7.375 -8.988281 8.101562 -7.269531 9.4375 -6 C 10.769531 -4.726562 12.441406 -4.09375 14.453125 -4.09375 C 17.367188 -4.09375 19.425781 -5.300781 20.625 -7.71875 L 26.40625 -7.71875 C 25.625 -5.332031 24.195312 -3.378906 22.125 -1.859375 C 20.050781 -0.335938 17.492188 0.421875 14.453125 0.421875 Z M 21.703125 -14.828125 C 21.671875 -16.960938 20.960938 -18.664062 19.578125 -19.9375 C 18.203125 -21.207031 16.523438 -21.84375 14.546875 -21.84375 C 12.566406 -21.84375 10.910156 -21.207031 9.578125 -19.9375 C 8.242188 -18.664062 7.484375 -16.960938 7.296875 -14.828125 Z M 21.703125 -14.828125 "/></g>
        </g>
    </g>
    <g fill="#ffcc00" fill-opacity="1">
        <g transform="translate(182.500892, 202.684499)">
            <g><path d="M 16.09375 -21.5625 L 9.796875 -21.5625 L 9.796875 -7.203125 C 9.796875 -6.234375 10.019531 -5.535156 10.46875 -5.109375 C 10.925781 -4.679688 11.707031 -4.46875 12.8125 -4.46875 L 16.09375 -4.46875 L 16.09375 0 L 11.859375 0 C 6.867188 0 4.375 -2.398438 4.375 -7.203125 L 4.375 -21.5625 L 1.3125 -21.5625 L 1.3125 -25.9375 L 4.375 -25.9375 L 4.375 -32.390625 L 9.796875 -32.390625 L 9.796875 -25.9375 L 16.09375 -25.9375 Z M 16.09375 -21.5625 "/></g>
        </g>
    </g>
    <g fill="#ffcc00" fill-opacity="1">
        <g transform="translate(200.012492, 202.684499)">
            <g><path d="M 14.453125 0.421875 C 10.679688 0.421875 7.617188 -0.800781 5.265625 -3.25 C 2.910156 -5.695312 1.734375 -8.9375 1.734375 -12.96875 C 1.734375 -17 2.914062 -20.238281 5.28125 -22.6875 C 7.65625 -25.132812 10.710938 -26.359375 14.453125 -26.359375 C 17.585938 -26.359375 20.179688 -25.613281 22.234375 -24.125 C 24.296875 -22.632812 25.6875 -20.507812 26.40625 -17.75 L 20.625 -17.75 C 19.644531 -20.476562 17.585938 -21.84375 14.453125 -21.84375 C 12.253906 -21.84375 10.503906 -21.066406 9.203125 -19.515625 C 7.898438 -17.960938 7.25 -15.785156 7.25 -12.984375 C 7.25 -10.191406 7.898438 -8.007812 9.203125 -6.4375 C 10.503906 -4.875 12.253906 -4.09375 14.453125 -4.09375 C 17.554688 -4.09375 19.613281 -5.457031 20.625 -8.1875 L 26.40625 -8.1875 C 25.65625 -5.550781 24.242188 -3.457031 22.171875 -1.90625 C 20.097656 -0.351562 17.523438 0.421875 14.453125 0.421875 Z M 14.453125 0.421875 "/></g>
        </g>
    </g>
    <g fill="#ffcc00" fill-opacity="1">
        <g transform="translate(228.257012, 202.684499)">
            <g><path d="M 8.890625 -34.84375 L 8.890625 -21.84375 C 10.617188 -24.851562 13.382812 -26.359375 17.1875 -26.359375 C 20.101562 -26.359375 22.507812 -25.382812 24.40625 -23.4375 C 26.3125 -21.5 27.265625 -18.785156 27.265625 -15.296875 L 27.265625 0 L 21.9375 0 L 21.9375 -14.5 C 21.9375 -16.820312 21.351562 -18.601562 20.1875 -19.84375 C 19.03125 -21.082031 17.445312 -21.703125 15.4375 -21.703125 C 13.425781 -21.703125 11.832031 -21.082031 10.65625 -19.84375 C 9.476562 -18.601562 8.890625 -16.820312 8.890625 -14.5 L 8.890625 0 L 3.53125 0 L 3.53125 -34.84375 Z M 8.890625 -34.84375 "/></g>
        </g>
    </g>
    <g fill="#ffcc00" fill-opacity="1">
        <g transform="translate(258.808169, 202.684499)">
            <g><path d="M 20.640625 -6.609375 C 22.191406 -8.191406 22.96875 -10.316406 22.96875 -12.984375 C 22.96875 -15.660156 22.191406 -17.78125 20.640625 -19.34375 C 19.085938 -20.914062 17.242188 -21.703125 15.109375 -21.703125 C 12.972656 -21.703125 11.128906 -20.929688 9.578125 -19.390625 C 8.023438 -17.859375 7.25 -15.757812 7.25 -13.09375 C 7.25 -10.425781 8.023438 -8.28125 9.578125 -6.65625 C 11.128906 -5.039062 12.972656 -4.234375 15.109375 -4.234375 C 17.242188 -4.234375 19.085938 -5.023438 20.640625 -6.609375 Z M 13.984375 0.421875 C 10.523438 0.421875 7.617188 -0.835938 5.265625 -3.359375 C 2.910156 -5.890625 1.734375 -9.125 1.734375 -13.0625 C 1.734375 -17 2.898438 -20.195312 5.234375 -22.65625 C 7.578125 -25.125 10.492188 -26.359375 13.984375 -26.359375 C 16.023438 -26.359375 17.820312 -25.894531 19.375 -24.96875 C 20.925781 -24.050781 22.125 -22.835938 22.96875 -21.328125 L 22.96875 -25.9375 L 28.390625 -25.9375 L 28.390625 0 L 22.96875 0 L 22.96875 -4.84375 C 22.09375 -3.25 20.882812 -1.972656 19.34375 -1.015625 C 17.8125 -0.0546875 16.023438 0.421875 13.984375 0.421875 Z M 13.984375 0.421875 "/></g>
        </g>
    </g>
    <g fill="#ffcc00" fill-opacity="1">
        <g transform="translate(290.724469, 202.684499)">
            <g><path d="M 16.09375 -21.5625 L 9.796875 -21.5625 L 9.796875 -7.203125 C 9.796875 -6.234375 10.019531 -5.535156 10.46875 -5.109375 C 10.925781 -4.679688 11.707031 -4.46875 12.8125 -4.46875 L 16.09375 -4.46875 L 16.09375 0 L 11.859375 0 C 6.867188 0 4.375 -2.398438 4.375 -7.203125 L 4.375 -21.5625 L 1.3125 -21.5625 L 1.3125 -25.9375 L 4.375 -25.9375 L 4.375 -32.390625 L 9.796875 -32.390625 L 9.796875 -25.9375 L 16.09375 -25.9375 Z M 16.09375 -21.5625 "/></g>
        </g>
    </g>
    <g fill="#ffcc00" fill-opacity="1">
        <g transform="translate(308.236069, 202.684499)">
            <g><path d="M 10.6875 -0.421875 L 0.46875 -25.9375 L 6.453125 -25.9375 L 13.75 -6.171875 L 21.328125 -25.9375 L 26.875 -25.9375 L 10.96875 12.1875 L 5.40625 12.1875 Z M 10.6875 -0.421875 "/></g>
        </g>
    </g>
</svg>
